<?xml version="1.0" encoding="UTF-8" standalone="no"?>
<!DOCTYPE svg PUBLIC "-//W3C//DTD SVG 20010904//EN"
              "http://www.w3.org/TR/2001/REC-SVG-20010904/DTD/svg10.dtd">

<svg xmlns="http://www.w3.org/2000/svg"
     width="6.94444in" height="6.94444in"
     viewBox="0 0 500 500">
  <path id="選択範囲 #1"
        fill="none" stroke="black" stroke-width="1"
        d="M 323.00,59.56
           C 298.03,68.28 306.46,104.77 331.00,102.67
             353.76,100.73 358.48,73.79 343.00,62.64
             337.12,58.40 329.88,58.35 323.00,59.56 Z
           M 230.00,109.61
           C 221.88,112.24 215.23,116.65 212.11,125.00
             211.09,127.73 211.05,129.16 211.24,132.00
             210.96,134.70 210.86,139.50 211.24,142.00
             213.95,152.11 223.95,158.75 234.00,158.99
             238.66,159.09 242.76,158.95 247.00,156.76
             272.37,143.68 259.28,104.07 230.00,109.61 Z
           M 261.00,307.00
           C 265.83,313.53 268.09,323.21 270.36,331.00
             270.36,331.00 273.63,342.00 273.63,342.00
             273.63,342.00 277.02,366.00 277.02,366.00
             277.02,366.00 277.02,373.00 277.02,373.00
             277.02,373.00 280.82,393.00 280.82,393.00
             281.62,399.61 282.34,415.22 284.59,420.99
             287.82,429.24 300.25,430.28 304.83,422.68
             306.68,419.59 306.01,407.18 306.00,403.00
             306.00,403.00 305.00,387.00 305.00,387.00
             305.00,387.00 305.00,372.00 305.00,372.00
             304.96,363.57 303.84,364.24 303.08,358.00
             303.08,358.00 303.08,349.00 303.08,349.00
             303.08,349.00 300.68,323.00 300.68,323.00
             300.68,323.00 294.37,291.00 294.37,291.00
             294.37,291.00 292.83,279.00 292.83,279.00
             292.83,279.00 290.31,270.00 290.31,270.00
             287.64,256.48 286.16,242.78 286.00,229.00
             286.00,229.00 280.99,202.00 280.99,202.00
             280.36,199.87 277.54,191.84 278.29,190.14
             279.54,187.26 286.07,186.50 289.00,185.69
             289.00,185.69 298.00,183.83 298.00,183.83
             306.90,181.75 312.28,179.12 322.00,179.00
             322.00,179.00 343.00,178.00 343.00,178.00
             348.38,177.98 351.54,178.14 357.00,177.42
             360.13,177.01 365.45,177.22 367.96,176.15
             375.75,172.83 376.12,160.15 368.91,156.31
             365.94,154.73 362.25,155.15 359.00,154.83
             359.00,154.83 337.00,153.00 337.00,153.00
             337.00,153.00 315.00,153.00 315.00,153.00
             304.23,153.02 290.60,157.04 280.00,159.56
             280.00,159.56 270.00,161.33 270.00,161.33
             270.00,161.33 227.00,173.72 227.00,173.72
             227.00,173.72 204.00,181.60 204.00,181.60
             201.69,182.38 197.68,184.26 195.43,182.93
             192.94,181.45 193.04,177.51 192.96,175.00
             192.96,175.00 192.96,163.00 192.96,163.00
             192.96,163.00 192.00,151.00 192.00,151.00
             191.98,140.16 192.12,141.64 190.44,131.00
             189.35,124.15 188.74,116.82 179.00,118.15
             170.69,119.28 171.42,125.82 170.83,132.00
             170.83,132.00 169.00,149.00 169.00,149.00
             169.00,149.00 169.00,168.00 169.00,168.00
             169.00,168.00 168.14,182.00 168.14,182.00
             168.14,182.00 168.14,203.00 168.14,203.00
             168.00,204.99 167.92,208.14 168.14,210.00
             170.98,219.33 182.41,219.22 190.00,217.03
             190.00,217.03 206.00,211.09 206.00,211.09
             212.44,209.26 217.97,204.78 221.70,213.01
             227.10,224.91 229.02,245.84 229.00,259.00
             228.98,269.42 227.98,266.40 227.18,273.00
             227.18,273.00 226.63,280.00 226.63,280.00
             226.63,280.00 225.02,286.00 225.02,286.00
             225.02,286.00 225.02,294.00 225.02,294.00
             225.02,294.00 221.83,319.00 221.83,319.00
             221.83,319.00 220.17,328.00 220.17,328.00
             220.17,328.00 219.63,336.00 219.63,336.00
             219.63,336.00 218.21,342.00 218.21,342.00
             217.48,347.20 218.24,352.65 216.46,358.00
             215.41,361.14 209.68,370.74 207.73,374.00
             207.73,374.00 192.05,401.28 192.05,401.28
             190.67,403.88 188.23,408.08 188.35,411.00
             188.64,417.58 195.40,423.37 202.00,422.43
             209.82,421.32 220.50,405.31 225.50,398.99
             225.50,398.99 245.93,372.96 245.93,372.96
             247.96,368.65 250.48,354.50 251.60,349.00
             251.60,349.00 261.00,307.00 261.00,307.00 Z" />
</svg>
